<svg aria-label="" class="_ab6-" color="#8e8e8e" fill="#8e8e8e" height="12" role="img" viewBox="0 0 24 24" width="12">
    <path d="M22.626 1.22a1.002 1.002 0 00-.843-.196L12 3.198 2.217 1.024A1 1 0 001 2v17.778a1 1 0 00.783.976l10 2.222a.994.994 0 00.214.024h.005a1.01 1.01 0 00.215-.024l10-2.222a1 1 0 00.783-.976V2a1.001 1.001 0 00-.374-.78zM11 20.753l-8-1.777V3.246l8 1.778zm10-1.777l-8 1.777V5.023l8-1.776zm-5.252-7.645a.987.987 0 00.217-.024l2.5-.556a1 1 0 00.783-.976v-2.77a1 1 0 00-1.217-.975l-2.5.555a1 1 0 00-.783.976v2.77a1 1 0 001 1zm2.283 4.21l-2.5.555a1 1 0 10.434 1.952l2.5-.555a1 1 0 10-.434-1.952zM5.535 10.75l2.5.556a.986.986 0 00.217.024 1 1 0 001-1V7.56a1 1 0 00-.783-.976l-2.5-.555a1 1 0 00-1.217.976v2.77a1 1 0 00.783.976zm2.934 5.345l-2.5-.555a1 1 0 10-.434 1.952l2.5.555a1 1 0 10.434-1.952zm9.562-3.926l-2.5.556a1 1 0 10.434 1.952l2.5-.556a1 1 0 10-.434-1.952z"></path>
</svg><svg aria-label="" class="_ab6-" color="#8e8e8e" fill="#8e8e8e" height="12" role="img" viewBox="0 0 24 24" width="12"><path d="M22.626 1.22a1.002 1.002 0 00-.843-.196L12 3.198 2.217 1.024A1 1 0 001 2v17.778a1 1 0 00.783.976l10 2.222a.994.994 0 00.214.024h.005a1.01 1.01 0 00.215-.024l10-2.222a1 1 0 00.783-.976V2a1.001 1.001 0 00-.374-.78zM11 20.753l-8-1.777V3.246l8 1.778zm10-1.777l-8 1.777V5.023l8-1.776zm-5.252-7.645a.987.987 0 00.217-.024l2.5-.556a1 1 0 00.783-.976v-2.77a1 1 0 00-1.217-.975l-2.5.555a1 1 0 00-.783.976v2.77a1 1 0 001 1zm2.283 4.21l-2.5.555a1 1 0 10.434 1.952l2.5-.555a1 1 0 10-.434-1.952zM5.535 10.75l2.5.556a.986.986 0 00.217.024 1 1 0 001-1V7.56a1 1 0 00-.783-.976l-2.5-.555a1 1 0 00-1.217.976v2.77a1 1 0 00.783.976zm2.934 5.345l-2.5-.555a1 1 0 10-.434 1.952l2.5.555a1 1 0 10.434-1.952zm9.562-3.926l-2.5.556a1 1 0 10.434 1.952l2.5-.556a1 1 0 10-.434-1.952z"></path></svg>